<svg width="24" height="24" viewBox="0 0 24 24" fill="currentColor"
    xmlns="http://www.w3.org/2000/svg">
    <path
        d="M10.5856 12L8.46428 14.1213C8.07376 14.5118 8.07376 15.145 8.46428 15.5355C8.8548 15.9261 9.48797 15.9261 9.87849 15.5355L11.9998 13.4142L14.1211 15.5355C14.5117 15.9261 15.1448 15.9261 15.5353 15.5355C15.9259 15.145 15.9259 14.5118 15.5353 14.1213L13.414 12L15.5353 9.87868C15.9259 9.48816 15.9259 8.85499 15.5353 8.46447C15.1448 8.07394 14.5117 8.07394 14.1211 8.46447L11.9998 10.5858L9.87849 8.46447C9.48797 8.07394 8.8548 8.07394 8.46428 8.46447C8.07376 8.85499 8.07376 9.48815 8.46428 9.87868L10.5856 12Z" />
    <path
        d="M12 3C7.02944 3 3 7.02944 3 12C3 16.9706 7.02944 21 12 21C16.9706 21 21 16.9706 21 12C21 7.02944 16.9706 3 12 3ZM5 12C5 8.13401 8.13401 5 12 5C15.866 5 19 8.13401 19 12C19 15.866 15.866 19 12 19C8.13401 19 5 15.866 5 12Z" />
</svg>