<svg xmlns="http://www.w3.org/2000/svg" enable-background="new 0 0 24 24" height="24px"
    viewBox="0 0 24 24" width="24px"
    fill="currentColor">
    <g>
        <rect fill="none" height="24" width="24" />
    </g>
    <g>
        <path
            d="M17,4 C17.7402524,4 18.3865739,4.40216612 18.7323937,4.99992752 L21,5 L21,7 L18.7318119,7.0010775 C18.3858493,7.59828461 17.7398375,8 17,8 C16.2601625,8 15.6141507,7.59828461 15.2681881,7.0010775 L3,7 L3,5 L15.2676063,4.99992752 C15.6134261,4.40216612 16.2597476,4 17,4 Z M7,10 C7.74025244,10 8.38657394,10.4021661 8.73239368,10.9999275 L21,11 L21,13 L8.73181186,13.0010775 C8.38584934,13.5982846 7.7398375,14 7,14 C6.2601625,14 5.61415066,13.5982846 5.26818814,13.0010775 L3,13 L3,11 L5.26760632,10.9999275 C5.61342606,10.4021661 6.25974756,10 7,10 Z M17,16 C17.7402524,16 18.3865739,16.4021661 18.7323937,16.9999275 L21,17 L21,19 L18.7318119,19.0010775 C18.3858493,19.5982846 17.7398375,20 17,20 C16.2601625,20 15.6141507,19.5982846 15.2681881,19.0010775 L3,19 L3,17 L15.2676063,16.9999275 C15.6134261,16.4021661 16.2597476,16 17,16 Z" />
    </g>
</svg>