<?xml version="1.0" encoding="UTF-8"?>
<svg width="18px" height="18px" viewBox="0 0 18 18" version="1.1" xmlns="http://www.w3.org/2000/svg"
    xmlns:xlink="http://www.w3.org/1999/xlink">
    <title>icons/in-town</title>
    <g id="icons/in-town" stroke="none" stroke-width="1" fill="none" fill-rule="evenodd">
        <polygon id="Bounds" points="0 0 18 0 18 18 0 18"></polygon>
        <path
            d="M9,5.25 L9,2.25 L1.5,2.25 L1.5,15.75 L16.5,15.75 L16.5,5.25 L9,5.25 L9,5.25 Z M4.5,14.25 L3,14.25 L3,12.75 L4.5,12.75 L4.5,14.25 L4.5,14.25 Z M4.5,11.25 L3,11.25 L3,9.75 L4.5,9.75 L4.5,11.25 L4.5,11.25 Z M4.5,8.25 L3,8.25 L3,6.75 L4.5,6.75 L4.5,8.25 L4.5,8.25 Z M4.5,5.25 L3,5.25 L3,3.75 L4.5,3.75 L4.5,5.25 L4.5,5.25 Z M7.5,14.25 L6,14.25 L6,12.75 L7.5,12.75 L7.5,14.25 L7.5,14.25 Z M7.5,11.25 L6,11.25 L6,9.75 L7.5,9.75 L7.5,11.25 L7.5,11.25 Z M7.5,8.25 L6,8.25 L6,6.75 L7.5,6.75 L7.5,8.25 L7.5,8.25 Z M7.5,5.25 L6,5.25 L6,3.75 L7.5,3.75 L7.5,5.25 L7.5,5.25 Z M15,14.25 L9,14.25 L9,12.75 L10.5,12.75 L10.5,11.25 L9,11.25 L9,9.75 L10.5,9.75 L10.5,8.25 L9,8.25 L9,6.75 L15,6.75 L15,14.25 L15,14.25 Z M13.5,8.25 L12,8.25 L12,9.75 L13.5,9.75 L13.5,8.25 L13.5,8.25 Z M13.5,11.25 L12,11.25 L12,12.75 L13.5,12.75 L13.5,11.25 L13.5,11.25 Z"
            id="Shape" fill="#9B9B9B" fill-rule="nonzero"></path>
    </g>
</svg>